<svg xmlns="http://www.w3.org/2000/svg" width="850" height="180" viewBox="0 0 850 180">
  <defs>
    <style>
      .metric-label { font-family: -apple-system, BlinkMacSystemFont, "Segoe UI", Roboto, Helvetica, Arial, sans-serif; fill: #64748b; font-size: 12px; font-weight: 600; letter-spacing: 0.5px; text-transform: uppercase; }
      .metric-value { font-family: -apple-system, BlinkMacSystemFont, "Segoe UI", Roboto, Helvetica, Arial, sans-serif; fill: #f1f5f9; font-size: 32px; font-weight: 800; }
      .metric-icon { fill: #00d4ff; }
    </style>
  </defs>

  <!-- Card background -->
  <rect x="0" y="0" width="850" height="180" rx="16" ry="16" fill="#0f1623" stroke="#1a2332" stroke-width="1"/>

  <!-- Section title -->
  <text x="32" y="32" class="metric-label" style="fill: #ffb020; opacity: 0.8;">MISSION TELEMETRY</text>

  <!-- Metric cells -->
      <g class="metric-cell" transform="translate(85.0, 95)">
      <g transform="translate(-8, -30) scale(1)">
        <svg viewBox="0 0 16 16" width="16" height="16" fill="#00d4ff" class="metric-icon" style="animation-delay: 0.0s">
          <path d="M10.5 7.75a2.5 2.5 0 1 1-5 0 2.5 2.5 0 0 1 5 0Zm1.43.75a4.002 4.002 0 0 1-7.86 0H.75a.75.75 0 1 1 0-1.5h3.32a4.001 4.001 0 0 1 7.86 0h3.32a.75.75 0 1 1 0 1.5h-3.32Z"/>
        </svg>
      </g>
      <text x="0" y="2" text-anchor="middle" fill="#00d4ff" font-size="28" font-weight="bold" font-family="sans-serif" opacity="0.35" filter="url(#num-glow)">1.8k</text>
      <text x="0" y="2" text-anchor="middle" fill="#f1f5f9" font-size="28" font-weight="bold" font-family="sans-serif">1.8k</text>
      <text x="0" y="20" text-anchor="middle" fill="#64748b" font-size="11" font-family="monospace" letter-spacing="1">Commits</text>
    </g>
    <g class="metric-cell" transform="translate(255.0, 95)">
      <g transform="translate(-8, -30) scale(1)">
        <svg viewBox="0 0 16 16" width="16" height="16" fill="#ffb020" class="metric-icon" style="animation-delay: 0.3s">
          <path d="M8 .25a.75.75 0 0 1 .673.418l1.882 3.815 4.21.612a.75.75 0 0 1 .416 1.279l-3.046 2.97.719 4.192a.75.75 0 0 1-1.088.791L8 12.347l-3.766 1.98a.75.75 0 0 1-1.088-.79l.72-4.194L.818 6.374a.75.75 0 0 1 .416-1.28l4.21-.611L7.327.668A.75.75 0 0 1 8 .25Z"/>
        </svg>
      </g>
      <text x="0" y="2" text-anchor="middle" fill="#ffb020" font-size="28" font-weight="bold" font-family="sans-serif" opacity="0.35" filter="url(#num-glow)">342</text>
      <text x="0" y="2" text-anchor="middle" fill="#f1f5f9" font-size="28" font-weight="bold" font-family="sans-serif">342</text>
      <text x="0" y="20" text-anchor="middle" fill="#64748b" font-size="11" font-family="monospace" letter-spacing="1">Stars</text>
    </g>
    <g class="metric-cell" transform="translate(425.0, 95)">
      <g transform="translate(-8, -30) scale(1)">
        <svg viewBox="0 0 16 16" width="16" height="16" fill="#a78bfa" class="metric-icon" style="animation-delay: 0.6s">
          <path d="M1.5 5.25a.75.75 0 1 1-1.5 0 .75.75 0 0 1 1.5 0Zm1.5 0a2.25 2.25 0 1 1-4.5 0 2.25 2.25 0 0 1 4.5 0ZM4.75 3.5h1.5a.75.75 0 0 1 .75.75v5.5a.75.75 0 0 1-.75.75h-1.5a.75.75 0 0 1 0-1.5h.75v-4h-.75a.75.75 0 0 1 0-1.5Zm8.5 7a.75.75 0 1 1-1.5 0 .75.75 0 0 1 1.5 0Zm1.5 0a2.25 2.25 0 1 1-4.5 0 2.25 2.25 0 0 1 4.5 0Z"/><path d="M5.75 12.5a.75.75 0 0 1 .75-.75h1.5a.75.75 0 0 1 0 1.5h-1.5a.75.75 0 0 1-.75-.75Z"/>
        </svg>
      </g>
      <text x="0" y="2" text-anchor="middle" fill="#a78bfa" font-size="28" font-weight="bold" font-family="sans-serif" opacity="0.35" filter="url(#num-glow)">156</text>
      <text x="0" y="2" text-anchor="middle" fill="#f1f5f9" font-size="28" font-weight="bold" font-family="sans-serif">156</text>
      <text x="0" y="20" text-anchor="middle" fill="#64748b" font-size="11" font-family="monospace" letter-spacing="1">Pull Requests</text>
    </g>
    <g class="metric-cell" transform="translate(595.0, 95)">
      <g transform="translate(-8, -30) scale(1)">
        <svg viewBox="0 0 16 16" width="16" height="16" fill="#00d4ff" class="metric-icon" style="animation-delay: 0.8999999999999999s">
          <path d="M8 9.5a1.5 1.5 0 1 0 0-3 1.5 1.5 0 0 0 0 3Z"/><path d="M8 0a8 8 0 1 1 0 16A8 8 0 0 1 8 0ZM1.5 8a6.5 6.5 0 1 0 13 0 6.5 6.5 0 0 0-13 0Z"/>
        </svg>
      </g>
      <text x="0" y="2" text-anchor="middle" fill="#00d4ff" font-size="28" font-weight="bold" font-family="sans-serif" opacity="0.35" filter="url(#num-glow)">89</text>
      <text x="0" y="2" text-anchor="middle" fill="#f1f5f9" font-size="28" font-weight="bold" font-family="sans-serif">89</text>
      <text x="0" y="20" text-anchor="middle" fill="#64748b" font-size="11" font-family="monospace" letter-spacing="1">Issues</text>
    </g>
    <g class="metric-cell" transform="translate(765.0, 95)">
      <g transform="translate(-8, -30) scale(1)">
        <svg viewBox="0 0 16 16" width="16" height="16" fill="#a78bfa" class="metric-icon" style="animation-delay: 1.2s">
          <path d="M2 2.5A2.5 2.5 0 0 1 4.5 0h8.75a.75.75 0 0 1 .75.75v12.5a.75.75 0 0 1-.75.75h-2.5a.75.75 0 0 1 0-1.5h1.75v-2h-8a1 1 0 0 0-.714 1.7.75.75 0 0 1-1.072 1.05A2.495 2.495 0 0 1 2 11.5Zm10.5-1h-8a1 1 0 0 0-1 1v6.708A2.486 2.486 0 0 1 4.5 9h8ZM5 12.25a.25.25 0 0 1 .25-.25h3.5a.25.25 0 0 1 .25.25v3.25a.25.25 0 0 1-.4.2L7.4 14.653a.25.25 0 0 0 .3 0l1.45-1.087a.25.25 0 0 1 .4-.2Z"/>
        </svg>
      </g>
      <text x="0" y="2" text-anchor="middle" fill="#a78bfa" font-size="28" font-weight="bold" font-family="sans-serif" opacity="0.35" filter="url(#num-glow)">42</text>
      <text x="0" y="2" text-anchor="middle" fill="#f1f5f9" font-size="28" font-weight="bold" font-family="sans-serif">42</text>
      <text x="0" y="20" text-anchor="middle" fill="#64748b" font-size="11" font-family="monospace" letter-spacing="1">Repositories</text>
    </g>
</svg>